<?xml version="1.0" encoding="UTF-8"?>
<svg id="Layer_2" data-name="Layer 2" xmlns="http://www.w3.org/2000/svg" xmlns:xlink="http://www.w3.org/1999/xlink" viewBox="0 0 207 48">
  <defs>
    <style>
      .cls-1 {
        fill-rule: evenodd;
      }

      .cls-1, .cls-2 {
        fill: #fff;
      }

      .cls-3 {
        fill: #25d366;
      }

      .cls-4 {
        clip-path: url(#clippath);
      }

      .cls-5 {
        fill: none;
      }

      .cls-2 {
        font-family: MS-UIGothic, 'MS UI Gothic';
        font-size: 28px;
        stroke: #fff;
        stroke-miterlimit: 10;
        stroke-width: .25px;
      }
    </style>
    <clipPath id="clippath">
      <rect class="cls-5" x="18.28" y="12" width="24" height="24"/>
    </clipPath>
  </defs>
  <g id="Layer_1-2" data-name="Layer 1">
    <g>
      <rect class="cls-3" x="0" y="0" width="207" height="48" rx="24" ry="24"/>
      <g>
        <g class="cls-4">
          <path class="cls-1" d="M30.03,12.95c2.9,.01,5.7,1.15,7.8,3.16,2.15,2.06,3.38,4.82,3.49,7.79,.11,2.9-.91,5.75-2.83,7.93-2.11,2.39-5.04,3.76-8.2,3.85-.11,0-.22,0-.33,0-1.71,0-3.39-.38-4.93-1.12l-5.95,1.32s-.09-.02-.1-.07c0,0,0-.02,0-.03l1-6.01c-.86-1.57-1.34-3.33-1.39-5.13-.09-3.03,1.01-5.92,3.1-8.13,2.16-2.29,5.11-3.56,8.27-3.56,0,0,.06,0,.06,0Zm-.06,1.97c-.09,0-.18,0-.27,0-5.18,.15-9.27,4.48-9.12,9.66,.05,1.58,.49,3.13,1.29,4.49l.17,.29-.74,4.08,4.04-.95,.31,.16c1.33,.69,2.82,1.06,4.33,1.06,.09,0,.18,0,.27,0,5.18-.15,9.27-4.48,9.12-9.66-.15-5.09-4.33-9.12-9.38-9.12Zm-3.93,3.9c.19,0,.38,.01,.55,.02,.2,.01,.43,.03,.63,.51,.24,.57,.75,2,.81,2.15s.11,.31,0,.5c-.1,.19-.15,.3-.3,.47-.15,.16-.31,.36-.44,.49-.15,.14-.3,.29-.14,.58,.16,.29,.7,1.24,1.53,2.02,1.06,1.01,1.91,1.34,2.25,1.49,.12,.06,.22,.08,.31,.08,.12,0,.22-.05,.31-.14,.18-.18,.71-.8,.94-1.09,.12-.15,.22-.2,.34-.2,.09,0,.19,.03,.31,.08,.26,.1,1.64,.84,1.92,.99,.28,.15,.47,.23,.54,.35,.07,.12,.05,.69-.21,1.35-.26,.66-1.44,1.27-1.97,1.3-.15,0-.3,.03-.5,.03-.48,0-1.22-.13-2.9-.85-2.86-1.23-4.6-4.26-4.74-4.46-.14-.19-1.12-1.58-1.07-2.99,.04-1.4,.8-2.07,1.07-2.35,.26-.27,.56-.33,.75-.33,0,0,.02,0,.02,0Z"/>
        </g>
        <text class="cls-2" transform="translate(51.56 33.64)"><tspan x="0" y="0">Contact Me</tspan></text>
      </g>
    </g>
  </g>
</svg>